*******************************************************************************
               Project Metalbeast (1995) VHSRip - RadioResearch
*******************************************************************************

-------------------------------------------------------------------------------
                              General Information
-------------------------------------------------------------------------------
Type.................: Movie



Video Format.........: AVI
Video Bitrate........: 2231
Resolution...........: 720 x 540
Color................: 8 bit
FPS..................: 29.970
Source...............: VHS 4:3
Original Format......: NTSC
Genre................: Horror / Sci-Fi
IMDb Rating..........: 4.9
Movie Information....: http://www.imdb.com/title/tt0114193/

-------------------------------------------------------------------------------
                               Post Information
-------------------------------------------------------------------------------
Posted by............: RadioResearch
Posted on............: 5/9/2013

-------------------------------------------------------------------------------
                                 Release Notes
-------------------------------------------------------------------------------
SEEDBOX SUPPORTED!!

With the medical breakthrough of a metal-based synthetic skin called "bio-
ferron" the prospect for pioneering surgeries for burn victims and cancer 
patients seems set to occur but for the warped head scientist in charge...it's a 
opportunist chance to reactivate a long forgotten classified project...that has 
been left frozen in a set of cryogenic chambers deep beneath the bowels of 
government laboratory. Convincing the other in the research team to start work 
on putting this living 'metal' skin on corpses, he now has the perfect test 
patients waiting on ice for them to work on. But there was a reason three of 
these stiffs in particular where left to chill. Due to an experiment gone bad 
these three only look human on the outside and none of them are as dead as 
everyone believes they are.

I have been looking for a copy of this forever!  Finally managed a stable VHS 
rip without tracking lines.  The video is about as clean and stable as I could 
get it, so I give it V=8.5 A=10.  Overall darn good and very rare, so we have to 
make some accommodations including the large file size.

If there was *ever* a candidate for digital remastering for DVD and BluRay, this 
is the film to do it with.  Great effects for 1995 and solid acting with a 
reasonable storyline.  All-in-all, good entertaining horror.  Now order some 
pizza and break out the Zlatý Bažant beer you've been holding in the cellar.  
It's a good night to stay in!

Enjoy!
RadioResearch

General
Complete name                            : G:Project Metalbeast (1995) VHSRip - 
RadioResearchPROJECT_METALBEAST-{RadioResearch}.avi
Format                                   : AVI
Format/Info                              : Audio Video Interleave
Format profile                           : OpenDML
File size                                : 1.43 GiB
Duration                                 : 1h 31mn
Overall bit rate                         : 2 231 Kbps
Movie name                               : PROJECT_METALBEAST
Writing application                      : MEncoder 5.0
Writing library                          : [= DigiArty videodll! =]

Video
ID                                       : 0
Format                                   : MPEG-4 Visual
Format profile                           : Simple@L1
Format settings, BVOP                    : No
Format settings, QPel                    : No
Format settings, GMC                     : No warppoints
Format settings, Matrix                  : Default (H.263)
Codec ID                                 : DX50
Codec ID/Hint                            : DivX 5
Duration                                 : 1h 31mn
Bit rate                                 : 2 000 Kbps
Width                                    : 720 pixels
Height                                   : 540 pixels
Display aspect ratio                     : 4:3
Frame rate                               : 29.970 fps
Color space                              : YUV
Chroma subsampling                       : 4:2:0
Bit depth                                : 8 bits
Scan type                                : Progressive
Compression mode                         : Lossy
Bits/(Pixel*Frame)                       : 0.172
Stream size                              : 1.28 GiB (90%)
Writing library                          : Lavc54.71.100

Audio
ID                                       : 1
Format                                   : MPEG Audio
Format version                           : Version 1
Format profile                           : Layer 2
Codec ID                                 : 50
Duration                                 : 1h 31mn
Bit rate mode                            : Constant
Bit rate                                 : 224 Kbps
Channel(s)                               : 2 channels
Sampling rate                            : 48.0 KHz
Compression mode                         : Lossy
Stream size                              : 147 MiB (10%)
Alignment                                : Split accross interleaves
Interleave, duration                     : 500 ms (14.98 video frames)
Interleave, preload duration             : 500 ms

AVI FILE MD5 HASH  539c20cad56fdbc2ec610ff4d0d26a28



-------------------------------------------------------------------------------
Generated with Cool NFO Creator - http://fly.to/coolbeans
-------------------------------------------------------------------------------
